<?xml version="1.0" encoding="utf-8"?>
<!-- Generator: Adobe Illustrator 23.0.5, SVG Export Plug-In . SVG Version: 6.00 Build 0)  -->
<svg version="1.1" id="Layer_1" xmlns="http://www.w3.org/2000/svg" xmlns:xlink="http://www.w3.org/1999/xlink" x="0px" y="0px"
	 viewBox="0 0 1920 1080" style="enable-background:new 0 0 1920 1080;" xml:space="preserve">
<style type="text/css">
	.st0{fill:#009245;}
	.st1{opacity:0.2;}
	.st2{fill:#39B54A;}
	.st3{opacity:0.43;fill:#166822;}
	.st4{opacity:0.43;fill:#22B573;}
	.st5{opacity:0.89;fill:#09683E;}
</style>
<g>
	<rect x="0" y="270" class="st0" width="1920" height="388"/>
</g>
<path class="st1" d="M293.9,658"/>
<path class="st1" d="M1002.6,270"/>
<path class="st2" d="M1812,363c-7,30.3-14,60.7-21,91c26.7-7.8,53.3-15.6,80-23.5C1851.3,408,1831.7,385.5,1812,363z"/>
<path class="st3" d="M1540.6,294c-25.2,106.3-50.4,212.7-75.6,319c96-27.4,192-54.8,288-82.3C1682.2,451.8,1611.4,372.9,1540.6,294z
	"/>
<path class="st4" d="M954,270c-32,129.3-64.1,258.7-96.1,388c63.7,0,127.3,0,191,0c113.1-31.5,226.1-62.9,339.2-94.4
	c-90-97.9-180-195.8-270-293.6C1063.3,270,1008.7,270,954,270z"/>
<path class="st5" d="M696.8,658c31.7-8.3,63.5-16.6,95.2-24.9C673.7,512.1,555.3,391,437,270c-118.8,0-237.7,0-356.5,0
	C47,399.3,13.5,528.7-20,658C219,658,457.9,658,696.8,658z"/>
</svg>
