<svg height="480pt" viewBox="0 0 480 480" width="480pt" xmlns="http://www.w3.org/2000/svg"><path d="m0 304h64v176h-64zm0 0" fill="#575c61"/><path d="m64 304h48v160h-48zm0 0" fill="#5b6673"/><path d="m384 16h48v144h-48zm0 0" fill="#699ce6"/><path d="m432 16h48v144h-48zm0 0" fill="#5789d6"/><path d="m112 448h64l48 32 256-56v-8c0-17.671875-14.328125-32-32-32h-192v-2.078125c0-3.816406-1.367188-7.515625-3.847656-10.417969l-44.152344-51.503906h-96" fill="#f3c6b0"/><path d="m344 208c0 48.601562-39.398438 88-88 88s-88-39.398438-88-88 39.398438-88 88-88 88 39.398438 88 88zm0 0" fill="#eebc5a"/><path d="m312 208c0 30.929688-25.070312 56-56 56s-56-25.070312-56-56 25.070312-56 56-56 56 25.070312 56 56zm0 0" fill="#f8cf6a"/><path d="m384 32h-64l-48-32h-56l-56 40v96l32 32h24v-72l24-24v10.078125c0 3.816406 1.367188 7.515625 3.847656 10.417969l44.152344 51.503906h96" fill="#f3c6b0"/><path d="m400 328c0 13.253906-10.746094 24-24 24s-24-10.746094-24-24 10.746094-24 24-24 24 10.746094 24 24zm0 0" fill="#eebc5a"/><path d="m136 208c0 13.253906-10.746094 24-24 24s-24-10.746094-24-24 10.746094-24 24-24 24 10.746094 24 24zm0 0" fill="#eebc5a"/><path d="m472 248c0 22.089844-17.910156 40-40 40s-40-17.910156-40-40 17.910156-40 40-40 40 17.910156 40 40zm0 0" fill="#ca5057"/><path d="m96 128c0 22.089844-17.910156 40-40 40s-40-17.910156-40-40 17.910156-40 40-40 40 17.910156 40 40zm0 0" fill="#ca5057"/><path d="m240 416h-9.375c-6.410156 0-12.441406-2.496094-16.96875-7.03125l-35.3125-35.3125 11.3125-11.3125 35.3125 35.3125c1.496094 1.488281 3.550781 2.34375 5.65625 2.34375h9.375c4.414062 0 8-3.59375 8-8v-10.078125c0-1.90625-.6875-3.753906-1.921875-5.203125l-41.757813-48.71875h-92.320312v-16h96c2.335938 0 4.550781 1.015625 6.070312 2.792969l44.152344 51.503906c3.722656 4.351563 5.777344 9.894531 5.777344 15.625v10.078125c0 13.230469-10.769531 24-24 24zm0 0" fill="#dcb29c"/><path d="m384 152h-96c-2.335938 0-4.550781-1.015625-6.070312-2.792969l-44.152344-51.503906c-3.722656-4.351563-5.777344-9.894531-5.777344-15.625v-10.078125c0-13.230469 10.769531-24 24-24h9.375c6.410156 0 12.441406 2.496094 16.96875 7.03125l35.3125 35.3125-11.3125 11.3125-35.3125-35.3125c-1.496094-1.488281-3.550781-2.34375-5.65625-2.34375h-9.375c-4.414062 0-8 3.59375-8 8v10.078125c0 1.90625.6875 3.753906 1.921875 5.203125l41.757813 48.71875h92.320312zm0 0" fill="#dcb29c"/><path d="m280 184v-8c0-10.414062-6.710938-19.214844-16-22.527344v-17.472656h-16v17.472656c-9.289062 3.3125-16 12.113282-16 22.527344v16c0 13.230469 10.769531 24 24 24 4.414062 0 8 3.59375 8 8v16c0 4.40625-3.585938 8-8 8s-8-3.59375-8-8h-16c0 10.414062 6.710938 19.214844 16 22.527344v17.472656h16v-17.472656c9.289062-3.3125 16-12.113282 16-22.527344v-16c0-13.230469-10.769531-24-24-24-4.414062 0-8-3.59375-8-8v-16c0-4.40625 3.585938-8 8-8s8 3.59375 8 8v8zm0 0" fill="#5b6673"/></svg>