<svg id="Layer_3" enable-background="new 0 0 64 64" height="512" viewBox="0 0 64 64" width="512" xmlns="http://www.w3.org/2000/svg"><g><g><path d="m29 62h-22c-2.761 0-5-2.239-5-5v-50c0-2.761 2.239-5 5-5h22c2.761 0 5 2.239 5 5v50c0 2.761-2.239 5-5 5z" fill="#8892a0"/></g><g><circle cx="18" cy="56" fill="#fff" r="2"/></g><g><path d="m2 10h32v40h-32z" fill="#a2dbf7"/></g><g><path d="m2 44.649c1.141.23 2.309.351 3.5.351 12.426 0 22.5-12.984 22.5-29 0-2.057-.169-4.064-.485-6h-25.515z" fill="#c7e9fa"/></g><g><path d="m22 16h24v22h-24z" fill="#976947"/></g><g><path d="m22 16v15.861c.657.084 1.322.139 2 .139 8.608 0 15.703-6.968 16.827-16z" fill="#c1a591"/></g><g><path d="m31 16v10l3-3 3 3v-10z" fill="#f7d881"/></g><g><circle cx="50" cy="17" fill="#96cc7f" r="9"/></g><g><path d="m41 17c0 1.85.56 3.569 1.517 4.999 6.896-.009 12.483-5.377 12.483-11.999 0-.168-.019-.332-.026-.498-1.425-.948-3.134-1.502-4.974-1.502-4.971 0-9 4.029-9 9z" fill="#c0e0b2"/></g><g><path d="m11 32-3.838-5.373c-.756-1.058-1.162-2.326-1.162-3.627 0-1.281.509-2.509 1.414-3.414l.172-.172c.905-.905 2.133-1.414 3.414-1.414 1.281 0 2.509.509 3.414 1.414l.172.172c.905.905 1.414 2.133 1.414 3.414 0 1.301-.406 2.569-1.162 3.627z" fill="#e0747c"/></g><g><path d="m11 18c-1.281 0-2.509.509-3.414 1.414l-.172.172c-.905.905-1.414 2.133-1.414 3.414 0 1.301.406 2.569 1.162 3.627l.894 1.251c3.198-.669 5.682-4.313 5.918-8.825-.847-.667-1.885-1.053-2.974-1.053z" fill="#e69096"/></g><g><path d="m57 60-3.838-5.373c-.756-1.058-1.162-2.326-1.162-3.627 0-1.281.509-2.509 1.414-3.414l.172-.172c.905-.905 2.133-1.414 3.414-1.414 1.281 0 2.509.509 3.414 1.414l.172.172c.905.905 1.414 2.133 1.414 3.414 0 1.301-.406 2.569-1.162 3.627z" fill="#e0747c"/></g><g><path d="m57 46c-1.281 0-2.509.509-3.414 1.414l-.172.172c-.905.905-1.414 2.133-1.414 3.414 0 1.301.406 2.569 1.162 3.627l.894 1.251c3.198-.669 5.682-4.313 5.918-8.825-.847-.667-1.885-1.053-2.974-1.053z" fill="#e69096"/></g><g><g><path d="m15 5h6v2h-6z" fill="#fff"/></g></g><g><g><path d="m22 33h24v2h-24z" fill="#fff"/></g></g><g><g><path d="m10 35h2v2h-2z" fill="#8892a0"/></g></g><g><g><path d="m10 39h2v2h-2z" fill="#8892a0"/></g></g><g><g><path d="m10 43h2v2h-2z" fill="#8892a0"/></g></g><g><g><path d="m14 43h2v2h-2z" fill="#8892a0"/></g></g><g><g><path d="m18 43h2v2h-2z" fill="#8892a0"/></g></g><g><g><path d="m22 43h2v2h-2z" fill="#8892a0"/></g></g><g><g><path d="m26 43h2v2h-2z" fill="#8892a0"/></g></g><g><g><path d="m30 43h2v2h-2z" fill="#8892a0"/></g></g><g><g><path d="m36 43h2v2h-2z" fill="#8892a0"/></g></g><g><g><path d="m40 43h2v2h-2z" fill="#8892a0"/></g></g><g><g><path d="m40 47h2v2h-2z" fill="#8892a0"/></g></g><g><g><path d="m40 51h2v2h-2z" fill="#8892a0"/></g></g><g><g><path d="m40 55h2v2h-2z" fill="#8892a0"/></g></g><g><g><path d="m40 59h2v2h-2z" fill="#8892a0"/></g></g><g><g><path d="m44 59h2v2h-2z" fill="#8892a0"/></g></g><g><g><path d="m48 59h2v2h-2z" fill="#8892a0"/></g></g><g><g><path d="m52 59h2v2h-2z" fill="#8892a0"/></g></g><g><g><path d="m48 21c-.256 0-.512-.098-.707-.293l-2-2 1.414-1.414 1.293 1.293 5.293-5.293 1.414 1.414-6 6c-.195.195-.451.293-.707.293z" fill="#fff"/></g></g></g></svg>