<svg id="Layer_5" enable-background="new 0 0 64 64" height="512" viewBox="0 0 64 64" width="512" xmlns="http://www.w3.org/2000/svg"><g><g><g><path d="m14 38h4 1c1.66 0 3 1.34 3 3 0 .83-.34 1.58-.88 2.12s-1.29.88-2.12.88h-1-4-4-4-1c-1.66 0-3-1.34-3-3 0-.83.34-1.58.88-2.12s1.29-.88 2.12-.88h1 4z" fill="#ffc729"/></g><g><path d="m14 50h4 1c1.66 0 3 1.34 3 3 0 .83-.34 1.58-.88 2.12s-1.29.88-2.12.88h-1-4-4-4-1c-1.66 0-3-1.34-3-3 0-.83.34-1.58.88-2.12s1.29-.88 2.12-.88h1 4z" fill="#ffc729"/></g><g><path d="m34 56h2.52c1.3 1.87 3.05 3.41 5.09 4.46-.5.92-1.49 1.54-2.61 1.54h-14c-1.66 0-3-1.34-3-3 0-.83.34-1.58.88-2.12s1.29-.88 2.12-.88h1 4z" fill="#ffc729"/></g><g><path d="m14 44h4 1c1.66 0 3 1.34 3 3 0 .83-.34 1.58-.88 2.12s-1.29.88-2.12.88h-1-4-4-4-1c-1.66 0-3-1.34-3-3 0-.83.34-1.58.88-2.12s1.29-.88 2.12-.88h1 4z" fill="#fcd770"/></g><g><path d="m14 56h4 1c1.66 0 3 1.34 3 3 0 .83-.34 1.58-.88 2.12s-1.29.88-2.12.88h-14c-1.66 0-3-1.34-3-3 0-.83.34-1.58.88-2.12s1.29-.88 2.12-.88h1 4z" fill="#fcd770"/></g><g><path d="m30 50h4v-2c0 2.98.93 5.73 2.52 8h-2.52-4-4-1c-1.66 0-3-1.34-3-3 0-.83.34-1.58.88-2.12s1.29-.88 2.12-.88h1z" fill="#fcd770"/></g><g><path d="m34 50h-4-4v-21h2 6v5 14z" fill="#969faa"/></g><g><path d="m38 29.22v2.78c0 1.1-.9 2-2 2h-2v-5h.79c1.08 0 2.15.07 3.21.22z" fill="#aab2bd"/></g><g><path d="m50 36h2c.66 0 1.25-.32 1.61-.82 4.94 2.16 8.39 7.08 8.39 12.82 0 7.73-6.27 14-14 14-2.3 0-4.47-.56-6.39-1.54-2.04-1.05-3.79-2.59-5.09-4.46-1.59-2.27-2.52-5.02-2.52-8 0-7.73 6.27-14 14-14 0 1.1.9 2 2 2z" fill="#ffc729"/></g><g><circle cx="48" cy="48" fill="#fcd770" r="10"/></g><g><path d="m48 5v28c-2.44-1.63-5.16-2.79-8-3.42v-6.58c0-1.1-.9-2-2-2h-2c-2.21 0-4-1.79-4-4v-8h2.79c4.7 0 9.3-1.39 13.21-4z" fill="#e6e9ed"/></g><g><path d="m28 29v-20h4v8c0 2.21 1.79 4 4 4h2c1.1 0 2 .9 2 2v6.58c-.66-.15-1.33-.27-2-.36-1.06-.15-2.13-.22-3.21-.22h-.79z" fill="#ccd1d9"/></g><g><path d="m28 9v20h-2c-2.61 0-4.84-1.67-5.65-4h-.01c-.22-.63-.34-1.3-.34-2v-2-4-2c0-.7.12-1.37.34-2h.01c.81-2.33 3.04-4 5.65-4z" fill="#ff826e"/></g><g><path d="m53.61 35.18c-.36.5-.95.82-1.61.82h-2c-1.1 0-2-.9-2-2v-1-28-1c0-1.1.9-2 2-2h2c1.1 0 2 .9 2 2v30c0 .44-.14.85-.39 1.18z" fill="#ff826e"/></g></g><g><path d="m49 45c.551 0 1 .449 1 1h2c0-1.654-1.346-3-3-3v-2h-2v2h-3v3c0 1.654 1.346 3 3 3h2c.551 0 1 .449 1 1v1h-3c-.551 0-1-.449-1-1h-2c0 1.654 1.346 3 3 3v2h2v-2h3v-3c0-1.654-1.346-3-3-3h-2c-.551 0-1-.449-1-1v-1z"/><path d="m48 37c-6.065 0-11 4.935-11 11s4.935 11 11 11 11-4.935 11-11-4.935-11-11-11zm0 20c-4.962 0-9-4.038-9-9s4.038-9 9-9 9 4.038 9 9-4.038 9-9 9z"/><path d="m31 24h2v2h-2z"/><path d="m35 24h2v2h-2z"/><path d="m54.913 34.687c.053-.222.087-.45.087-.687v-30c0-1.654-1.346-3-3-3h-2c-1.654 0-3 1.346-3 3v.442c-3.659 2.322-7.866 3.558-12.211 3.558h-8.789c-3.86 0-7 3.14-7 7v8c0 3.519 2.613 6.432 6 6.92v19.08c-1.2 0-2.266.542-3 1.382-.119-.136-.246-.263-.382-.382.84-.734 1.382-1.8 1.382-3s-.542-2.266-1.382-3c.84-.734 1.382-1.8 1.382-3 0-2.206-1.794-4-4-4h-14c-2.206 0-4 1.794-4 4 0 1.2.542 2.266 1.382 3-.84.734-1.382 1.8-1.382 3s.542 2.266 1.382 3c-.84.734-1.382 1.8-1.382 3s.542 2.266 1.382 3c-.84.734-1.382 1.8-1.382 3 0 2.206 1.794 4 4 4h14c1.2 0 2.266-.542 3-1.382.734.84 1.8 1.382 3 1.382h14c1.136 0 2.192-.479 2.939-1.291 1.856.824 3.903 1.291 6.061 1.291 8.271 0 15-6.729 15-15 0-5.643-3.138-10.746-8.087-13.313zm-5.913-30.687c0-.551.449-1 1-1h2c.551 0 1 .449 1 1v30c0 .551-.449 1-1 1h-2c-.551 0-1-.449-1-1zm-13 18h2c.551 0 1 .449 1 1v5.372c-1.383-.237-2.789-.372-4.211-.372h-5.789v-18h2v7c0 2.757 2.243 5 5 5zm1 8.12v1.88c0 .551-.449 1-1 1h-1v-2.992c.671.006 1.337.048 2 .112zm-2 4.88h1c1.654 0 3-1.346 3-3v-1.595c2.554.478 5.007 1.384 7.268 2.703-4.824.558-8.951 3.413-11.268 7.44zm12-28.212v24.423c-1.893-1.072-3.911-1.869-6-2.408v-5.803c0-1.654-1.346-3-3-3h-2c-1.654 0-3-1.346-3-3v-7h1.789c4.305 0 8.491-1.106 12.211-3.212zm-24.974 19.212h2.974v-2h-3.899c-.066-.323-.101-.658-.101-1v-1h4v-2h-4v-2h4v-2h-4v-1c0-.342.035-.677.101-1h3.899v-2h-2.974c.914-1.207 2.348-2 3.974-2h1v18h-1c-1.627 0-3.061-.793-3.974-2zm4.974 4h6v19h-6zm-2 21v2h2v-2h2v2h2v-2h2v2h.875c.245.69.529 1.361.868 2h-9.743c-1.103 0-2-.897-2-2s.897-2 2-2zm-3 5.382c-.119-.136-.246-.263-.382-.382.136-.119.263-.246.382-.382.119.136.246.263.382.382-.136.119-.263.246-.382.382zm-19-15.382c0-1.103.897-2 2-2v2h2v-2h2v2h2v-2h2v2h2v-2h2v2h2v-2c1.103 0 2 .897 2 2s-.897 2-2 2h-14c-1.103 0-2-.897-2-2zm0 6c0-1.103.897-2 2-2v2h2v-2h2v2h2v-2h2v2h2v-2h2v2h2v-2c1.103 0 2 .897 2 2s-.897 2-2 2h-14c-1.103 0-2-.897-2-2zm0 6c0-1.103.897-2 2-2v2h2v-2h2v2h2v-2h2v2h2v-2h2v2h2v-2c1.103 0 2 .897 2 2s-.897 2-2 2h-14c-1.103 0-2-.897-2-2zm16 8h-14c-1.103 0-2-.897-2-2s.897-2 2-2v2h2v-2h2v2h2v-2h2v2h2v-2h2v2h2v-2c1.103 0 2 .897 2 2s-.897 2-2 2zm20 0h-14c-1.103 0-2-.897-2-2s.897-2 2-2v2h2v-2h2v2h2v-2h2v2h2v-2h1.029c1.104 1.465 2.466 2.719 4.023 3.698-.311.193-.672.302-1.052.302zm9 0c-7.168 0-13-5.832-13-13 0-6.897 5.403-12.541 12.197-12.959.425 1.14 1.516 1.959 2.803 1.959h2c.684 0 1.308-.239 1.814-.626 4.39 2.194 7.186 6.668 7.186 11.626 0 7.168-5.832 13-13 13z"/></g></g></svg>