<svg height="512pt" viewBox="-51 0 512 512.00074" width="512pt" xmlns="http://www.w3.org/2000/svg"><path d="m366.933594 59.734375c4.714844 0 8.535156-3.820313 8.535156-8.535156v-34.132813c0-4.710937-3.820312-8.53125-8.535156-8.53125h-324.265625c-4.714844 0-8.535157 3.820313-8.535157 8.53125v34.132813c0 4.714843 3.820313 8.535156 8.535157 8.535156zm0 0" fill="#ff7956"/><path d="m68.265625 59.734375h273.066406v51.199219h-273.066406zm0 0" fill="#e6e7e8"/><path d="m20.480469 151.894531c-7.582031 6.484375-11.949219 15.960938-11.945313 25.941407v308.566406c0 9.421875 7.640625 17.066406 17.066406 17.066406h358.398438c9.425781 0 17.066406-7.640625 17.066406-17.066406v-308.566406c.003906-9.980469-4.363281-19.457032-11.945312-25.941407l-47.785156-40.960937h-273.070313zm192.851562 121.171875h17.070313v-34.132812h136.53125v34.132812h-17.066406v34.132813h17.066406v34.132812h-8.53125v34.132813h8.53125v68.269531h-8.53125v34.132813h-136.535156v-34.132813h8.535156v-68.265625h-8.535156v-34.132812h8.535156v-34.136719h-17.070313zm-17.066406 102.402344h-8.53125v34.132812h-8.535156v34.132813h8.535156v34.132813h-136.535156v-34.132813h-8.53125v-34.132813h8.53125v-34.132812h8.535156v-34.132812h-17.066406v-34.132813h136.53125v34.132813h17.066406zm-76.796875-238.933594c37.699219 0 68.265625 30.5625 68.265625 68.265625s-30.566406 68.265625-68.265625 68.265625c-37.703125 0-68.269531-30.5625-68.269531-68.265625s30.566406-68.265625 68.269531-68.265625zm0 0" fill="#f1f2f2"/><path d="m51.199219 477.867188h136.535156v-34.132813h-136.535156zm0 0" fill="#ffb655"/><path d="m42.667969 409.601562v34.132813h136.53125v-34.132813zm0 0" fill="#ffc477"/><path d="m51.199219 375.46875v34.132812h136.535156v-34.132812zm0 0" fill="#ffb655"/><path d="m59.734375 341.332031v34.136719h136.53125v-34.136719zm0 0" fill="#ffc477"/><path d="m179.199219 307.199219h-136.53125v34.132812h136.53125zm0 0" fill="#ffb655"/><path d="m221.867188 443.734375v34.132813h136.535156v-34.132813zm0 0" fill="#ffc477"/><path d="m230.402344 443.734375h136.53125v-34.132813h-136.53125zm0 0" fill="#ffb655"/><path d="m230.402344 409.601562h136.53125v-34.132812h-136.53125zm0 0" fill="#ffc477"/><path d="m221.867188 341.332031v34.136719h136.535156v-34.136719zm0 0" fill="#ffb655"/><path d="m230.402344 341.332031h136.53125v-34.132812h-136.53125zm0 0" fill="#ffc477"/><path d="m349.867188 307.199219v-34.132813h-136.535157v34.132813zm0 0" fill="#ffb655"/><path d="m366.933594 273.066406v-34.132812h-136.53125v34.132812zm0 0" fill="#ffc477"/><path d="m187.734375 204.800781c0 37.703125-30.566406 68.265625-68.265625 68.265625-37.703125 0-68.269531-30.5625-68.269531-68.265625s30.566406-68.269531 68.269531-68.269531c37.699219 0 68.265625 30.566406 68.265625 68.269531zm0 0" fill="#ffde55"/><g fill="#3e3d42"><path d="m196.265625 332.800781h-8.53125v-25.601562c0-4.710938-3.820313-8.53125-8.535156-8.53125h-136.53125c-4.714844 0-8.535157 3.820312-8.535157 8.53125v34.132812c0 4.714844 3.820313 8.535157 8.535157 8.535157h8.53125v17.066406c-4.710938 0-8.53125 3.820312-8.53125 8.53125v25.601562c-4.714844 0-8.535157 3.820313-8.535157 8.535156v34.132813c0 4.710937 3.820313 8.53125 8.535157 8.53125v25.601563c0 4.710937 3.820312 8.535156 8.53125 8.535156h136.535156c4.710937 0 8.53125-3.824219 8.53125-8.535156v-34.132813c0-4.714844-3.820313-8.535156-8.53125-8.535156v-17.066407c4.710937 0 8.53125-3.820312 8.53125-8.53125v-25.601562c4.714844 0 8.535156-3.820312 8.535156-8.535156v-34.132813c0-4.710937-3.820312-8.53125-8.535156-8.53125zm-145.066406-17.066406h119.46875v17.066406h-119.46875zm17.066406 34.132813h119.46875v17.066406h-119.46875zm110.933594 119.464843h-119.464844v-17.066406h119.464844zm-8.53125-34.132812h-119.46875v-17.066407h119.46875zm8.53125-34.132813h-119.464844v-17.066406h119.464844zm0 0"/><path d="m366.933594 230.398438h-136.53125c-4.714844 0-8.535156 3.820312-8.535156 8.535156v25.601562h-8.535157c-4.710937 0-8.53125 3.820313-8.53125 8.53125v34.132813c0 4.714843 3.820313 8.535156 8.53125 8.535156h8.535157v17.066406c-4.714844 0-8.535157 3.820313-8.535157 8.535157v34.132812c0 4.710938 3.820313 8.53125 8.535157 8.53125v51.199219c-4.714844 0-8.535157 3.820312-8.535157 8.535156v34.132813c0 4.710937 3.820313 8.535156 8.535157 8.535156h136.535156c4.710937 0 8.53125-3.824219 8.53125-8.535156v-25.601563c4.714844 0 8.535156-3.820313 8.535156-8.53125v-68.269531c0-4.710938-3.820312-8.53125-8.535156-8.53125v-17.066406c4.714844 0 8.535156-3.820313 8.535156-8.535157v-34.132812c0-4.710938-3.820312-8.53125-8.535156-8.53125h-8.53125v-17.070313h8.53125c4.714844 0 8.535156-3.820312 8.535156-8.53125v-34.132812c0-4.714844-3.824219-8.535156-8.535156-8.535156zm-128 85.335937h119.46875v17.066406h-119.46875zm119.46875 85.332031h-119.46875v-17.066406h119.46875zm-119.46875 17.066406h119.46875v17.066407h-119.46875zm110.933594 51.199219h-119.464844v-17.066406h119.464844zm0-102.398437h-119.464844v-17.066406h119.464844zm-8.535157-68.265625h-119.464843v-17.066407h119.464843zm17.070313-34.136719h-119.46875v-17.066406h119.46875zm0 0"/><path d="m394.703125 145.441406-44.835937-38.433594v-38.742187h17.066406c9.425781 0 17.066406-7.640625 17.066406-17.066406v-34.132813c0-9.425781-7.640625-17.066406-17.066406-17.066406h-324.265625c-9.425781 0-17.066407 7.640625-17.066407 17.066406v34.132813c0 9.425781 7.640626 17.066406 17.066407 17.066406h17.066406v38.742187l-44.835937 38.398438c-9.464844 8.113281-14.9062505 19.960938-14.898438 32.429688v308.566406c0 14.136718 11.460938 25.597656 25.601562 25.597656h358.398438c14.140625 0 25.601562-11.460938 25.601562-25.597656v-308.566406c.007813-12.457032-5.4375-24.292969-14.898437-32.394532zm-352.035156-128.375h324.265625v34.132813h-324.265625zm290.132812 51.199219v34.132813h-256v-34.132813zm59.734375 418.136719c0 4.710937-3.820312 8.53125-8.535156 8.53125h-358.398438c-4.714843 0-8.535156-3.820313-8.535156-8.53125v-308.566406c0-7.476563 3.265625-14.578126 8.941406-19.441407l45.414063-38.929687h266.753906l45.414063 38.929687c5.675781 4.863281 8.941406 11.964844 8.941406 19.441407v308.566406zm0 0"/><path d="m119.46875 230.398438c-4.714844 0-8.535156-3.820313-8.535156-8.53125h-17.066406c.042968 10.808593 6.875 20.425781 17.066406 24.027343v10.105469h17.066406v-10.105469c13.304688-4.683593 20.292969-19.269531 15.605469-32.574219-3.605469-10.234374-13.285157-17.074218-24.136719-17.054687-4.714844 0-8.535156-3.820313-8.535156-8.53125 0-4.714844 3.820312-8.535156 8.535156-8.535156 4.710938 0 8.53125 3.820312 8.53125 8.535156h17.066406c-.042968-10.8125-6.875-20.429687-17.066406-24.03125v-10.101563h-17.066406v10.101563c-13.304688 4.6875-20.292969 19.269531-15.605469 32.574219 3.605469 10.238281 13.285156 17.078125 24.140625 17.054687 4.710938 0 8.53125 3.820313 8.53125 8.535157 0 4.710937-3.820312 8.53125-8.53125 8.53125zm0 0"/><path d="m119.46875 281.601562c42.414062 0 76.796875-34.386718 76.796875-76.800781 0-42.417969-34.382813-76.800781-76.796875-76.800781-42.417969 0-76.800781 34.382812-76.800781 76.800781.046875 42.394531 34.402343 76.753907 76.800781 76.800781zm0-136.535156c32.988281 0 59.730469 26.742188 59.730469 59.734375 0 32.988281-26.742188 59.734375-59.730469 59.734375-32.992188 0-59.734375-26.746094-59.734375-59.734375.039063-32.976562 26.757813-59.695312 59.734375-59.734375zm0 0"/></g></svg>