<svg height="512pt" viewBox="0 -54 512.001 512" width="512pt" xmlns="http://www.w3.org/2000/svg"><path d="m469.023438 341.554688v62.421874h34.382812c4.746094 0 8.59375-3.847656 8.59375-8.59375v-53.828124zm0 0" fill="#f0a479"/><path d="m486.210938 240.042969-54.570313-21.132813c-5.320313 5.878906-11.082031 12.183594-16.59375 18.175782-13.710937 14.910156-37.246094 14.914062-50.957031.003906-5.414063-5.890625-11.058594-12.066406-16.300782-17.855469l-53.679687 20.808594s-25.789063 10.605469-25.789063 40.003906v63.378906h34.828126c4.503906 0 8.152343 3.652344 8.152343 8.152344v52.398437h157.71875v-52.398437c0-4.5 3.652344-8.152344 8.152344-8.152344h34.828125c0-23.980469 0-49.339843 0-63.378906 0-29.402344-25.789062-40.003906-25.789062-40.003906zm0 0" fill="#f25c5c"/><path d="m413.960938 403.976562c.84375-3.015624 1.300781-6.183593 1.300781-9.464843l.003906-127c0-9.871094-1.773437-18.640625-4.683594-26.351563-13.929687 10.675782-34.171875 9.324219-46.488281-4.074218-5.417969-5.886719-11.0625-12.0625-16.304688-17.851563l-53.675781 20.808594s-25.789062 10.601562-25.789062 40.003906v63.378906h34.828125c4.503906 0 8.152344 3.648438 8.152344 8.152344v52.398437zm0 0" fill="#e54a4a"/><path d="m419.972656 214.390625c-2.105468-.816406-3.488281-2.839844-3.488281-5.09375v-21.175781c-7.46875 5.152344-16.507813 8.175781-26.246094 8.175781-10.191406 0-19.144531-2.796875-26.46875-7.476563v20.480469c0 2.253907-1.386719 4.273438-3.488281 5.089844l-13.746094 5.328125c5.578125 6.175781 11.710938 12.886719 17.558594 19.242188 13.710938 14.910156 37.242188 14.90625 50.953125-.003907 5.945313-6.464843 12.191406-13.296875 17.847656-19.5625zm0 0" fill="#f0a479"/><path d="m397.585938 219.4375c-1.273438-1.476562-1.976563-3.355469-1.976563-5.308594v-18.144531c-1.761719.207031-3.554687.3125-5.371094.3125-10.191406 0-19.144531-2.800781-26.46875-7.480469v20.480469c0 2.253906-1.386719 4.277344-3.488281 5.09375l-13.746094 5.328125c3.457032 3.824219 7.125 7.855469 10.808594 11.878906 6.136719 6.707032 16.789062 21.738282 38.265625 18.003906 5.535156-.976562 10.878906-3.296874 15.492187-6.972656-3.230468-9.164062-8.070312-16.875-13.515624-23.191406zm0 0" fill="#e5966e"/><path d="m343.640625 121.335938v-3c0-2.496094 2.132813-4.472657 4.605469-4.285157 24.390625 1.753907 48.121094-4.910156 66.890625-17.167969 1.75-1.144531 4.070312-.859374 5.496093.667969 16.042969 17.246094 14.859376 15.492188 14.859376 17.746094v3.535156.121094 2.328125c6.167968-.402344 13.078124 1.847656 17.152343 5.621094v-26.722656c0-34.835938-28.242187-63.078126-63.078125-63.078126-34.839844 0-63.078125 28.242188-63.078125 63.078126v27.226562c4.285157-3.914062 11.460938-6.257812 17.152344-6.070312zm0 0" fill="#5e6377"/><path d="m356.640625 100.179688c0-29.640626 20.445313-54.492188 48-61.25-4.832031-1.1875-9.878906-1.828126-15.074219-1.828126-34.839844 0-63.078125 28.238282-63.078125 63.078126v27.226562c4.285157-3.914062 11.460938-6.257812 17.152344-6.070312v-3c0-2.496094 2.132813-4.472657 4.609375-4.285157 2.808594.203125 5.605469.28125 8.390625.265625zm0 0" fill="#52586d"/><path d="m436.261719 118.019531v34.742188c0 .441406-.019531.875-.035157 1.308593 11.683594.765626 22.128907-7.714843 22.128907-18.023437 0-10.328125-10.449219-18.769531-22.09375-18.027344zm0 0" fill="#f0a479"/><path d="m343.136719 152.761719v-34.6875c-10.519531-.335938-22.359375 7.523437-22.359375 17.972656 0 10.292969 10.550781 18.792969 22.390625 18.023437-.011719-.4375-.03125-.871093-.03125-1.308593zm0 0" fill="#f0a479"/><path d="m452.652344 123.753906c-4.136719-3.828125-10.078125-6.136718-16.390625-5.734375v34.742188c0 .441406-.019531.875-.035157 1.308593 6.332032.417969 12.285157-1.898437 16.425782-5.738281zm0 0" fill="#e5966e"/><path d="m343.136719 148.539062c-3.664063-3.261718-5.96875-7.679687-5.96875-12.492187 0-4.691406 2.386719-8.855469 5.96875-11.996094v-5.976562c-10.519531-.335938-22.359375 7.523437-22.359375 17.96875 0 10.296875 10.550781 18.792969 22.390625 18.027343-.011719-.4375-.03125-.871093-.03125-1.308593zm0 0" fill="#e5966e"/><path d="m420.632812 93.207031c-1.425781-1.53125-3.746093-1.816406-5.496093-.671875-18.765625 12.261719-43.585938 20.011719-67.976563 18.257813-2.472656-.1875-4.605468 1.785156-4.605468 4.285156v37.683594c0 24.222656 18.976562 46.339843 47.683593 46.339843 25.550781 0 46.339844-20.785156 46.339844-46.339843v-40.726563c0-2.25.097656-1.582031-15.945313-18.828125zm0 0" fill="#f7b594"/><path d="m372.910156 152.761719v-43.476563c-8.445312 1.539063-17.121094 2.128906-25.75 1.507813-2.472656-.1875-4.605468 1.785156-4.605468 4.285156v37.683594c0 24.222656 18.976562 46.339843 47.683593 46.339843 5.132813 0 10.074219-.851562 14.695313-2.398437-19.742188-6.351563-32.023438-24.460937-32.023438-43.941406zm0 0" fill="#f0a479"/><path d="m42.980469 403.976562v-62.421874h-42.980469v53.828124c0 4.746094 3.847656 8.59375 8.59375 8.59375h35.300781c-.304687 0-.613281 0-.914062 0zm0 0" fill="#f0a479"/><path d="m0 395.382812c0 4.746094 3.847656 8.59375 8.59375 8.59375h21.550781c-2.476562-1.421874-4.148437-4.085937-4.148437-7.144531v-55.277343h-25.996094zm0 0" fill="#e5966e"/><path d="m217.890625 240.042969-54.570313-21.132813c-5.320312 5.878906-11.082031 12.183594-16.597656 18.175782-13.710937 14.910156-37.242187 14.914062-50.953125.003906-5.414062-5.890625-11.058593-12.066406-16.300781-17.855469l-53.679688 20.808594s-25.789062 10.605469-25.789062 40.003906v63.378906h34.828125c4.5 0 8.152344 3.652344 8.152344 8.152344v52.398437h157.71875v-52.398437c0-4.5 3.652343-8.152344 8.152343-8.152344h34.828126c0-23.980469 0-49.339843 0-63.378906 0-29.402344-25.789063-40.003906-25.789063-40.003906zm0 0" fill="#ffc850"/><path d="m151.648438 214.390625c-2.101563-.816406-3.488282-2.839844-3.488282-5.09375v-21.175781c-7.464844 5.152344-16.507812 8.175781-26.242187 8.175781-10.191407 0-19.148438-2.796875-26.472657-7.476563v20.480469c0 2.253907-1.382812 4.273438-3.484374 5.089844l-13.746094 5.328125c5.578125 6.175781 11.710937 12.886719 17.554687 19.242188 13.710938 14.910156 37.242188 14.90625 50.953125-.003907 5.949219-6.464843 12.195313-13.296875 17.851563-19.5625zm0 0" fill="#f0a479"/><path d="m127.285156 195.984375c-1.761718.207031-3.550781.3125-5.367187.3125-10.191407 0-19.148438-2.800781-26.472657-7.480469v20.480469c0 2.253906-1.382812 4.277344-3.484374 5.09375l-13.746094 5.328125c5.574218 6.175781 11.710937 12.882812 17.554687 19.238281 8.34375 9.074219 20.324219 12.617188 31.515625 10.644531zm0 0" fill="#e5966e"/><path d="m25.992188 262.152344c0-11.199219 3.910156-19.53125 8.617187-25.527344l-8.820313 3.417969s-25.789062 10.601562-25.789062 40v63.382812h25.996094zm0 0" fill="#feb644"/><path d="m75.320312 121.335938v-3c0-2.496094 2.132813-4.472657 4.605469-4.285157 24.390625 1.753907 48.121094-4.910156 66.886719-17.167969 1.753906-1.144531 4.074219-.859374 5.496094.667969 16.046875 17.246094 14.863281 15.492188 14.863281 17.746094v3.535156.121094 2.328125c6.167969-.402344 13.078125 1.847656 17.148437 5.621094v-26.722656c0-34.835938-28.238281-63.078126-63.078124-63.078126-34.835938 0-63.078126 28.242188-63.078126 63.078126v27.226562c4.289063-3.914062 11.464844-6.257812 17.15625-6.070312zm0 0" fill="#5e6377"/><path d="m88.316406 100.179688c0-29.640626 20.449219-54.492188 48.003906-61.25-4.832031-1.1875-9.878906-1.828126-15.078124-1.828126-34.835938 0-63.078126 28.238282-63.078126 63.078126v27.226562c4.289063-3.914062 11.464844-6.257812 17.15625-6.070312v-3c0-2.496094 2.132813-4.472657 4.609376-4.285157 2.804687.203125 5.605468.28125 8.386718.265625zm0 0" fill="#52586d"/><path d="m167.941406 118.019531v34.742188c0 .441406-.019531.875-.035156 1.308593 11.683594.765626 22.128906-7.714843 22.128906-18.023437 0-10.328125-10.449218-18.769531-22.09375-18.027344zm0 0" fill="#f0a479"/><path d="m74.8125 152.761719v-34.6875c-10.515625-.335938-22.355469 7.523437-22.355469 17.972656 0 10.292969 10.550781 18.792969 22.390625 18.023437-.011718-.4375-.035156-.871093-.035156-1.308593zm0 0" fill="#f0a479"/><path d="m184.328125 123.753906c-4.132813-3.828125-10.074219-6.136718-16.386719-5.734375v34.742188c0 .441406-.019531.875-.035156 1.308593 6.332031.417969 12.285156-1.898437 16.421875-5.738281zm0 0" fill="#e5966e"/><path d="m74.8125 148.539062c-3.660156-3.261718-5.96875-7.679687-5.96875-12.492187 0-4.691406 2.390625-8.855469 5.96875-11.996094v-5.976562c-10.515625-.335938-22.355469 7.523437-22.355469 17.96875 0 10.296875 10.550781 18.792969 22.390625 18.027343-.011718-.4375-.035156-.871093-.035156-1.308593zm0 0" fill="#e5966e"/><path d="m152.308594 93.207031c-1.421875-1.53125-3.742188-1.816406-5.496094-.671875-18.765625 12.261719-43.585938 20.011719-67.972656 18.257813-2.472656-.1875-4.605469 1.785156-4.605469 4.285156v37.683594c0 24.222656 18.976563 46.339843 47.679687 46.339843 25.554688 0 46.34375-20.785156 46.34375-46.339843v-40.726563c0-2.25.097657-1.582031-15.949218-18.828125zm0 0" fill="#f7b594"/><g fill="#f0a479"><path d="m104.589844 152.761719v-43.476563c-8.449219 1.539063-17.121094 2.128906-25.75 1.507813-2.472656-.1875-4.609375 1.785156-4.609375 4.285156v37.683594c0 24.222656 18.980469 46.339843 47.683593 46.339843 5.136719 0 10.074219-.851562 14.695313-2.398437-19.738281-6.351563-32.019531-24.460937-32.019531-43.941406zm0 0"/><path d="m342.183594 335.242188v68.734374h37.859375c5.226562 0 9.464843-4.238281 9.464843-9.464843v-59.269531zm0 0"/><path d="m168.511719 403.976562v-68.734374h-47.328125v59.269531c0 5.226562 4.238281 9.464843 9.464844 9.464843h38.871093c-.335937 0-.675781 0-1.007812 0zm0 0"/></g><path d="m121.183594 394.511719c0 5.226562 4.238281 9.464843 9.464844 9.464843h23.730468c-2.730468-1.5625-4.570312-4.5-4.570312-7.867187v-60.867187h-28.621094v59.269531zm0 0" fill="#e5966e"/><path d="m361.109375 223.464844-60.089844-23.269532c-5.859375 6.472657-12.203125 13.414063-18.273437 20.015626-15.097656 16.417968-41.011719 16.417968-56.105469 0-5.964844-6.484376-12.179687-13.285157-17.953125-19.660157l-59.105469 22.914063s-28.398437 11.675781-28.398437 44.046875v69.792969h38.351562c4.957032 0 8.976563 4.015624 8.976563 8.972656v57.699218h173.671875v-57.699218c0-4.957032 4.015625-8.972656 8.972656-8.972656h38.351562c0-26.40625 0-54.332032 0-69.792969 0-32.371094-28.398437-44.046875-28.398437-44.046875zm0 0" fill="#00c3ff"/><path d="m288.171875 195.21875c-2.316406-.898438-3.84375-3.125-3.84375-5.609375v-23.316406c-8.222656 5.671875-18.175781 9-28.898437 9-11.21875 0-21.082032-3.078125-29.148438-8.234375v22.554687c0 2.480469-1.523438 4.707031-3.835938 5.605469l-15.136718 5.867188c6.140625 6.800781 12.894531 14.1875 19.332031 21.1875 15.097656 16.417968 41.007813 16.417968 56.105469 0 6.550781-7.121094 13.425781-14.644532 19.65625-21.546876zm0 0" fill="#f0a479"/><path d="m261.34375 174.953125c-1.941406.222656-3.914062.339844-5.914062.339844-11.21875 0-21.082032-3.078125-29.148438-8.234375v22.554687c0 2.480469-1.523438 4.707031-3.835938 5.605469l-15.136718 5.867188c6.140625 6.800781 12.894531 14.1875 19.332031 21.1875 9.1875 9.992187 22.378906 13.890624 34.703125 11.71875zm0 0" fill="#e5966e"/><path d="m149.808594 247.8125c0-12.332031 4.300781-21.507812 9.484375-28.113281l-9.710938 3.765625s-28.398437 11.675781-28.398437 44.046875v69.792969h28.625zm0 0" fill="#00aaf0"/><path d="m204.121094 92.753906v-3.300781c0-2.753906 2.347656-4.925781 5.074218-4.71875 26.855469 1.929687 52.988282-5.40625 73.652344-18.90625 1.925782-1.261719 4.480469-.949219 6.050782.738281 17.664062 18.988282 16.363281 17.058594 16.363281 19.535156v3.894532.132812 2.5625c6.789062-.441406 14.402343 2.035156 18.882812 6.191406v-29.425781c0-38.359375-31.09375-69.457031-69.457031-69.457031-38.359375 0-69.457031 31.097656-69.457031 69.457031v29.980469c4.722656-4.308594 12.621093-6.890625 18.890625-6.683594zm0 0" fill="#5e6377"/><path d="m218.433594 69.457031c0-32.636719 22.515625-60 52.855468-67.445312-5.320312-1.304688-10.875-2.011719-16.601562-2.011719-38.359375 0-69.457031 31.097656-69.457031 69.457031v29.980469c4.722656-4.308594 12.621093-6.890625 18.890625-6.683594v-3.300781c0-2.753906 2.351562-4.925781 5.074218-4.71875 3.089844.222656 6.171876.308594 9.238282.289063zm0 0" fill="#52586d"/><path d="m306.109375 89.101562v38.257813c0 .480469-.023437.960937-.039063 1.441406 12.863282.84375 24.363282-8.496093 24.363282-19.847656 0-11.375-11.5-20.667969-24.324219-19.851563zm0 0" fill="#f0a479"/><path d="m203.5625 127.359375v-38.195313c-11.578125-.371093-24.617188 8.28125-24.617188 19.785157 0 11.339843 11.617188 20.695312 24.65625 19.847656-.015624-.476563-.039062-.957031-.039062-1.4375zm0 0" fill="#f0a479"/><path d="m324.15625 95.417969c-4.554688-4.21875-11.097656-6.761719-18.046875-6.316407v38.257813c0 .480469-.023437.960937-.039063 1.441406 6.972657.457031 13.527344-2.09375 18.085938-6.316406zm0 0" fill="#e5966e"/><path d="m203.5625 122.707031c-4.03125-3.59375-6.570312-8.457031-6.570312-13.757812 0-5.160157 2.628906-9.746094 6.570312-13.203125v-6.582032c-11.578125-.371093-24.617188 8.28125-24.617188 19.789063 0 11.335937 11.617188 20.691406 24.65625 19.847656-.015624-.480469-.039062-.960937-.039062-1.441406zm0 0" fill="#e5966e"/><path d="m288.898438 61.78125c-1.570313-1.6875-4.125-2-6.050782-.738281-20.664062 13.496093-47.996094 22.03125-74.851562 20.101562-2.722656-.207031-5.070313 1.96875-5.070313 4.71875v41.496094c0 26.667969 20.894531 51.023437 52.503907 51.023437 28.136718 0 51.027343-22.890624 51.027343-51.023437v-44.847656c0-2.476563.105469-1.742188-17.558593-20.730469zm0 0" fill="#f7b594"/><path d="m236.351562 127.359375v-47.875c-9.300781 1.691406-18.855468 2.34375-28.355468 1.660156-2.722656-.207031-5.074219 1.96875-5.074219 4.71875v41.496094c0 26.667969 20.898437 51.023437 52.507813 51.023437 5.65625 0 11.089843-.9375 16.179687-2.644531-21.734375-6.988281-35.257813-26.929687-35.257813-48.378906zm0 0" fill="#f0a479"/></svg>